<mxfile host="app.diagrams.net" agent="Mozilla/5.0 (X11; Ubuntu; Linux x86_64; rv:139.0) Gecko/20100101 Firefox/139.0" version="27.1.6">
  <diagram name="Page-1" id="ge4O7zRESAH2WUw7shcY">
    <mxGraphModel dx="1301" dy="800" grid="1" gridSize="10" guides="1" tooltips="1" connect="1" arrows="1" fold="1" page="1" pageScale="1" pageWidth="850" pageHeight="1100" math="0" shadow="0">
      <root>
        <mxCell id="0" />
        <mxCell id="1" parent="0" />
        <mxCell id="Te8dB9PmaPa8kRwx8Noq-1" value="GCP Management Console" style="rounded=1;whiteSpace=wrap;html=1;" vertex="1" parent="1">
          <mxGeometry x="690" y="20" width="120" height="60" as="geometry" />
        </mxCell>
        <mxCell id="Te8dB9PmaPa8kRwx8Noq-2" value="Firewall" style="rounded=1;whiteSpace=wrap;html=1;" vertex="1" parent="1">
          <mxGeometry x="320" y="185" width="120" height="60" as="geometry" />
        </mxCell>
        <mxCell id="Te8dB9PmaPa8kRwx8Noq-4" value="Public" style="ellipse;whiteSpace=wrap;html=1;" vertex="1" parent="1">
          <mxGeometry x="20" y="190" width="70" height="50" as="geometry" />
        </mxCell>
        <mxCell id="Te8dB9PmaPa8kRwx8Noq-5" value="Internal" style="ellipse;whiteSpace=wrap;html=1;" vertex="1" parent="1">
          <mxGeometry x="20" y="310" width="70" height="50" as="geometry" />
        </mxCell>
        <mxCell id="Te8dB9PmaPa8kRwx8Noq-8" value="&lt;div&gt;Traffic&lt;/div&gt;&lt;div&gt;Manager&lt;/div&gt;" style="rounded=1;whiteSpace=wrap;html=1;" vertex="1" parent="1">
          <mxGeometry x="160" y="315" width="60" height="40" as="geometry" />
        </mxCell>
        <mxCell id="Te8dB9PmaPa8kRwx8Noq-9" value="&lt;div&gt;Traffic&lt;/div&gt;&lt;div&gt;Manager&lt;/div&gt;" style="rounded=1;whiteSpace=wrap;html=1;" vertex="1" parent="1">
          <mxGeometry x="160" y="195" width="60" height="40" as="geometry" />
        </mxCell>
        <mxCell id="Te8dB9PmaPa8kRwx8Noq-10" value="Apigee" style="rounded=1;whiteSpace=wrap;html=1;" vertex="1" parent="1">
          <mxGeometry x="690" y="185" width="120" height="60" as="geometry" />
        </mxCell>
        <mxCell id="Te8dB9PmaPa8kRwx8Noq-11" value="APG" style="rounded=1;whiteSpace=wrap;html=1;" vertex="1" parent="1">
          <mxGeometry x="520" y="200" width="50" height="30" as="geometry" />
        </mxCell>
        <mxCell id="Te8dB9PmaPa8kRwx8Noq-12" value="Microservices" style="rounded=1;whiteSpace=wrap;html=1;" vertex="1" parent="1">
          <mxGeometry x="690" y="400" width="120" height="60" as="geometry" />
        </mxCell>
        <mxCell id="Te8dB9PmaPa8kRwx8Noq-13" value="" style="endArrow=classic;html=1;rounded=0;exitX=1;exitY=0.5;exitDx=0;exitDy=0;entryX=0;entryY=0.5;entryDx=0;entryDy=0;" edge="1" parent="1" source="Te8dB9PmaPa8kRwx8Noq-4" target="Te8dB9PmaPa8kRwx8Noq-9">
          <mxGeometry width="50" height="50" relative="1" as="geometry">
            <mxPoint x="400" y="440" as="sourcePoint" />
            <mxPoint x="450" y="390" as="targetPoint" />
          </mxGeometry>
        </mxCell>
        <mxCell id="Te8dB9PmaPa8kRwx8Noq-14" value="" style="endArrow=classic;html=1;rounded=0;exitX=1;exitY=0.5;exitDx=0;exitDy=0;entryX=0;entryY=0.5;entryDx=0;entryDy=0;" edge="1" parent="1" source="Te8dB9PmaPa8kRwx8Noq-9" target="Te8dB9PmaPa8kRwx8Noq-2">
          <mxGeometry width="50" height="50" relative="1" as="geometry">
            <mxPoint x="400" y="440" as="sourcePoint" />
            <mxPoint x="450" y="390" as="targetPoint" />
          </mxGeometry>
        </mxCell>
        <mxCell id="Te8dB9PmaPa8kRwx8Noq-15" value="" style="endArrow=classic;html=1;rounded=0;exitX=1;exitY=0.5;exitDx=0;exitDy=0;entryX=0;entryY=0.5;entryDx=0;entryDy=0;" edge="1" parent="1" source="Te8dB9PmaPa8kRwx8Noq-2" target="Te8dB9PmaPa8kRwx8Noq-11">
          <mxGeometry width="50" height="50" relative="1" as="geometry">
            <mxPoint x="400" y="440" as="sourcePoint" />
            <mxPoint x="450" y="390" as="targetPoint" />
          </mxGeometry>
        </mxCell>
        <mxCell id="Te8dB9PmaPa8kRwx8Noq-16" value="" style="endArrow=classic;html=1;rounded=0;exitX=1;exitY=0.5;exitDx=0;exitDy=0;entryX=0;entryY=0.5;entryDx=0;entryDy=0;" edge="1" parent="1" source="Te8dB9PmaPa8kRwx8Noq-5" target="Te8dB9PmaPa8kRwx8Noq-8">
          <mxGeometry width="50" height="50" relative="1" as="geometry">
            <mxPoint x="400" y="440" as="sourcePoint" />
            <mxPoint x="450" y="390" as="targetPoint" />
          </mxGeometry>
        </mxCell>
        <mxCell id="Te8dB9PmaPa8kRwx8Noq-17" value="" style="endArrow=classic;html=1;rounded=0;exitX=1;exitY=0.5;exitDx=0;exitDy=0;entryX=0.5;entryY=1;entryDx=0;entryDy=0;" edge="1" parent="1" source="Te8dB9PmaPa8kRwx8Noq-8" target="Te8dB9PmaPa8kRwx8Noq-11">
          <mxGeometry width="50" height="50" relative="1" as="geometry">
            <mxPoint x="400" y="440" as="sourcePoint" />
            <mxPoint x="450" y="390" as="targetPoint" />
            <Array as="points">
              <mxPoint x="545" y="320" />
            </Array>
          </mxGeometry>
        </mxCell>
        <mxCell id="Te8dB9PmaPa8kRwx8Noq-19" value="" style="endArrow=classic;startArrow=classic;html=1;rounded=0;entryX=0.5;entryY=1;entryDx=0;entryDy=0;exitX=0.5;exitY=0;exitDx=0;exitDy=0;" edge="1" parent="1" source="Te8dB9PmaPa8kRwx8Noq-10" target="Te8dB9PmaPa8kRwx8Noq-1">
          <mxGeometry width="50" height="50" relative="1" as="geometry">
            <mxPoint x="400" y="440" as="sourcePoint" />
            <mxPoint x="450" y="390" as="targetPoint" />
          </mxGeometry>
        </mxCell>
        <mxCell id="Te8dB9PmaPa8kRwx8Noq-20" value="" style="endArrow=classic;html=1;rounded=0;exitX=1;exitY=0.5;exitDx=0;exitDy=0;entryX=0;entryY=0.5;entryDx=0;entryDy=0;" edge="1" parent="1" source="Te8dB9PmaPa8kRwx8Noq-11" target="Te8dB9PmaPa8kRwx8Noq-10">
          <mxGeometry width="50" height="50" relative="1" as="geometry">
            <mxPoint x="400" y="440" as="sourcePoint" />
            <mxPoint x="450" y="390" as="targetPoint" />
          </mxGeometry>
        </mxCell>
        <mxCell id="Te8dB9PmaPa8kRwx8Noq-21" value="" style="endArrow=classic;html=1;rounded=0;exitX=0.5;exitY=1;exitDx=0;exitDy=0;entryX=0.5;entryY=0;entryDx=0;entryDy=0;" edge="1" parent="1" source="Te8dB9PmaPa8kRwx8Noq-10" target="Te8dB9PmaPa8kRwx8Noq-12">
          <mxGeometry width="50" height="50" relative="1" as="geometry">
            <mxPoint x="400" y="440" as="sourcePoint" />
            <mxPoint x="450" y="390" as="targetPoint" />
          </mxGeometry>
        </mxCell>
        <mxCell id="Te8dB9PmaPa8kRwx8Noq-22" value="&lt;div&gt;&amp;nbsp;Kubernetes&lt;/div&gt;&lt;div&gt;&lt;br&gt;&lt;/div&gt;&lt;div&gt;&lt;br&gt;&lt;/div&gt;&lt;div&gt;&lt;br&gt;&lt;/div&gt;&lt;div&gt;&lt;br&gt;&lt;/div&gt;&lt;div&gt;&lt;br&gt;&lt;/div&gt;" style="rounded=0;whiteSpace=wrap;html=1;opacity=60;align=left;" vertex="1" parent="1">
          <mxGeometry x="670" y="140" width="160" height="110" as="geometry" />
        </mxCell>
        <mxCell id="Te8dB9PmaPa8kRwx8Noq-23" value="&lt;div&gt;&amp;nbsp;Kubernetes&lt;/div&gt;&lt;div&gt;&lt;br&gt;&lt;/div&gt;&lt;div&gt;&lt;br&gt;&lt;/div&gt;&lt;div&gt;&lt;br&gt;&lt;/div&gt;&lt;div&gt;&lt;br&gt;&lt;/div&gt;&lt;div&gt;&lt;br&gt;&lt;/div&gt;" style="rounded=0;whiteSpace=wrap;html=1;opacity=60;align=left;" vertex="1" parent="1">
          <mxGeometry x="670" y="360" width="160" height="110" as="geometry" />
        </mxCell>
      </root>
    </mxGraphModel>
  </diagram>
</mxfile>
